<svg xmlns="http://www.w3.org/2000/svg" data-name="Layer 1" width="432.17502" height="416.49593" viewBox="0 0 432.17502 416.49593" xmlns:xlink="http://www.w3.org/1999/xlink"><path d="M814.31014,515.13434q-4.29522-47.15851-8.59043-94.31632c-3.17588-34.86943-8.08082-73.30321-34.35263-96.44946-21.19384-18.67238-52.23489-22.68062-79.9472-17.21593s-52.9896,19.19761-77.77339,32.74751l-26.90818-1.176c-9.26572-22.02988-32.38391-37.48292-56.28293-37.62106-23.89884-.13814-47.19427,15.04632-56.71383,36.96822-7.67375,17.67032-6.64417,37.73676-5.477,56.96592q2.951,48.61427,5.90192,97.22783c2.77442,45.70556,7.2374,95.48386,38.7439,128.71171,22.72673,23.96738,56.42283,35.07769,89.39963,36.94367,32.977,1.86668,65.79566-4.57483,98.19745-10.98409,41.58442-8.22544,88.89054-20.67721,107.30733-58.85715C818.55908,565.80461,816.5532,539.763,814.31014,515.13434Z" transform="translate(-383.91249 -241.75203)" fill="#ffc700"/><path d="M626.92921,540.54535C577.672,464.17116,516.55685,392.7192,452.13249,329.97032,503.13063,399.38031,576.732,489.2475,626.92921,540.54535Z" transform="translate(-383.91249 -241.75203)"/><path d="M440.46858,526.71283c72.94318-54.20862,140.18978-119.92269,198.53255-188.36265C573.122,393.83442,488.328,473.22748,440.46858,526.71283Z" transform="translate(-383.91249 -241.75203)"/><path d="M383.91249,620.64789c87.00126,10.69464,173.62249-8.95716,258.104-27.08633,33.03551-9.55549,127.14779,23.85881,110.673-37.86994a2127.90582,2127.90582,0,0,1-56.98132-298.949c-5.16969-30.066-60.4776-4.816-83.09-9.44379C537.468,252.426,463.23766,257.69409,387.86931,262.98775c95.63983-2.82183,199.562-7.35067,297.10557-10.74466,10.71987,104.76131,28.71122,209.70774,57.72425,310.97252,7.04218,33.54026-58.35744,14.59-78.604,18.8372C573.56638,595.18186,472.62262,630.4446,383.91249,620.64789Z" transform="translate(-383.91249 -241.75203)"/></svg>