<svg xmlns="http://www.w3.org/2000/svg" data-name="Layer 1" width="570.58996" height="484.22505" viewBox="0 0 570.58996 484.22505" xmlns:xlink="http://www.w3.org/1999/xlink"><path d="M406.2333,267.69942c-31.82824,15.917-44.89108,60.78234-26.58179,91.29721,30.98558,51.64161,24.955,122.84261-14.27469,168.53715-20.77033,24.19314-19.90184,62.83054-1.28291,88.71587s51.95424,38.9877,83.79322,37.2575,61.94119-16.90379,85.82086-38.03376c12.09167-10.69934,4.84553-32.13861-8.7445-40.85613s-30.60418-9.38156-46.30365-13.15127-32.49124-13.27929-35.02641-29.22472C429.58763,443.89792,415.54184,355.55458,406.2333,267.69942Z" transform="translate(-314.70502 -207.88748)" fill="#d8d8d8"/><path d="M640.01372,459.66556a18.6819,18.6819,0,0,0-12.66592-4.54414c-6.02472.27925-10.89941,4.65625-13.98,9.55261a33.14558,33.14558,0,0,0-4.41612,14.66423c-1.96914,6.92831-1.64892,14.62161,2.9115,20.4309,3.22431,4.73946,9.57008,4.52073,14.55569,3.28814,8.47262-2.24939,13.40319-10.762,16.23724-18.48838C645.25893,476.57351,646.34485,466.20417,640.01372,459.66556Z" transform="translate(-314.70502 -207.88748)" fill="#d8d8d8"/><path d="M329.44363,278.27155Z" transform="translate(-314.70502 -207.88748)"/><path d="M610.764,227.55851Z" transform="translate(-314.70502 -207.88748)"/><path d="M883.84482,297.94286c-1.82439-13.51648-3.68654-27.16318-8.02367-40.14091-10.13946-35.16773-49.97944-45.52848-82.35335-48.45818-42.35336-4.53609-84.69493,2.53688-126.702,7.38753-26.95332,3.40408-53.9873,6.165-81.15377,7.045-28.46472,1.71869-56.94818.53382-85.4353.69512-13.54154-.04243-27.05464,1.25216-40.5917,1.16036-14.93452-.29059-30.48186-2.05116-44.96211-3.70931a182.78656,182.78656,0,0,0-19.822-2.14954c2.80808-.60331,5.61224-1.15835,8.21-1.703-11.20116.01171-23.10567-.47621-33.01974,5.59642-20.07265,11.215-30.8136,35.76648-34.99,57.48356-3.51491,20.99581,1.94334,42.05838,8.0414,62.0555,3.67858,12.55509,7.36411,25.13945,9.87009,37.99044,2.39661,13.41426,4.11712,38.92807,1.64352,51.77723-2.94781,21.63333-14.71607,37.17536-22.95407,59.09526-12.55683,31.602-20.71144,66.184-15.08457,100.20687a132.11917,132.11917,0,0,0,22.36877,54.90956c7.90827,11.71751,19.09114,20.56769,31.52984,27.09972,17.13572,8.67973,36.19614,12.35594,55.057,15.11977,15.95159,2.32218,32.10042,2.68483,48.19685,2.70823,14.41441-.1068,28.85379-.28455,43.22212-1.525,26.17527-2.13528,49.48641-7.84161,77.01763-14.41058,32.46379-7.51206,64.70109-16.10749,96.05957-27.44a267.07776,267.07776,0,0,0,30.70616-13.87419c10.19333-5.778,20.053-12.13832,29.84389-18.5694,14.76124-9.98512,29.45061-20.22,42.49976-32.41012,16.34706-15.585,31.63042-32.54289,42.92357-52.20753,11.39154-19.85283,18.62544-41.74493,26.67178-63.08821,7.03183-19.23434,11.871-39.17659,15.85184-59.24247,4.39336-22.19385,7.164-44.69127,6.796-67.34578C885.17059,327.31575,885.44948,312.55771,883.84482,297.94286Zm-9.04047,69.61822c-1.29815,15.91419-3.7275,28.50221-7.03246,46.02188-4.07461,19.98962-9.27482,39.7629-16.6223,58.81546-6.1488,15.9824-11.31153,30.62779-17.561,43.44038-13.7854,27.61342-31.05316,46.60179-54.32928,67.3648-11.01042,9.63271-24.56759,18.50447-39.08981,28.2833-15.52641,10.364-31.5859,19.95122-48.99667,26.82175-27.60062,10.57-69.51269,21.80541-102.88649,29.08321-18.41614,4.22776-36.72585,9.04622-55.44365,11.78975-16.50461,2.689-40.99238,3.84555-61.73555,3.60269-20.25543-.16459-38.45395-1.1631-55.59964-4.60614-11.6387-2.0603-23.24274-4.71092-34.19821-9.22635-8.42892-3.90993-20.96719-10.40318-28.51464-19.31956a119.58246,119.58246,0,0,1-26.87835-59.4846q-.31766-2.39973-.63541-4.79945c-.42958-4.20709-.68332-8.42736-.7273-12.65622.37152-11.85687,1.075-21.64869,2.696-30.19639a261.4822,261.4822,0,0,1,12.6298-43.56236c3.24727-9.56359,9.03032-20.7568,14.41533-32.958,4.77512-10.24408,8.81434-20.91169,9.8668-32.24682q-.08613.64493-.173,1.28966c.49843-3.96753.23189-1.25491.64089-4.97244a130.86208,130.86208,0,0,0,.78409-18.36878,221.16261,221.16261,0,0,0-3.044-31.68172c-2.34266-13.70284-6.1659-27.10228-9.90767-40.47612-8.92973-29.15252-11.93048-51.8352-.856-80.34234,3.85-10.87409,13.22187-28.8067,28.14057-34.91847a63.12776,63.12776,0,0,1,12.49027-3.91377c2.7577.45153,5.49227,1.06435,8.21468,1.6801,18.75684,5.27053,37.705,10.32637,57.12649,12.41154,16.4673,1.60511,33.05924.59234,49.57775.81088,15.50821-.04152,31.00672.67043,46.51438.65415,21.693-.33192,43.39941-1.02466,65.03676-2.65959,49.99088-4.11292,99.49082-14.33029,149.75739-14.78858,29.31473.75528,56.24008,2.49975,79.96013,17.32912,12.25646,7.89994,18.32251,20.36013,22.0554,39.208A221.26457,221.26457,0,0,1,875.465,322.693C875.65885,337.64779,875.7128,352.62766,874.80435,367.56108Z" transform="translate(-314.70502 -207.88748)"/><path d="M611.10324,389.38716c-6.7138-12.76084-19.01452-21.38078-31.03744-28.744-.21351-.12838-.42172-.26572-.63477-.395,2.45367-11.24131,3.62464-22.75071,1.7922-34.20324-2.09148-16.36572-7.35186-33.99951-20.77874-44.60751-11.40242-7.25658-25.97026-8.9727-38.97295-5.62787-10.28769,2.93372-19.2369,9.39076-26.71367,16.99628-10.88012,1.83975-21.7885,4.65624-30.56415,11.5639a67.32461,67.32461,0,0,0-17.51483,22.00146c-5.40577-2.655-10.81081-5.58362-16.86178-5.75187a15.84238,15.84238,0,0,0-15.30466,15.15324c-.32141,12.26359,10.50806,21.19734,21.663,27.34167-.70471,5.746-1.08556,11.48946-1.21906,17.09137a69.23419,69.23419,0,0,0,16.98915,45.645,88.13137,88.13137,0,0,0,18.56254,14.66111c11.01728,6.21418,24.48557,5.853,36.52175,3.23767,12.37862-3.59611,24.45348-9.00929,34.64809-16.98056a114.11567,114.11567,0,0,0,14.25229-14.90562c12.43275,6.39432,27.52363,14.23593,40.86373,11.272C611.91467,418.32315,618.637,403.68343,611.10324,389.38716ZM438.05511,351.61378c-8.41776-4.28409-18.39575-11.721-14.94073-19.90915.69658-2.56358,3.16936-4.55621,6.36578-5.8605,3.55267-1.21961,7.34071-.24176,10.90344.4433q2.87264.59252,5.74556,1.18578A101.43,101.43,0,0,0,438.05511,351.61378Zm50.457,82.89843c-6.62629-.41422-9.758-1.26149-17.36377-6.54446,4.0544-6.7171-1.5366,11.197,3.38774,7.74432-.23172.60746,8.73693,3.12454,9,3,3.44258-1.06234,4.44242-1.299,9-1,5.20909.38953,17.32443-21.7122,24.295-10.61665.29233.436.56655.884.8469,1.32824-1.28745.57278-2.53541,1.0991-3.71735,1.55977C503.269,433.96175,499.08942,434.93429,488.51214,434.51221Zm45.47947-15.3321-.01947.015a101.20493,101.20493,0,0,1-15.8928,9.05244,38.32719,38.32719,0,0,0-1.9311-7.14393,33.32181,33.32181,0,0,0-9.9468-13.41041c-5.80216-4.911-13.93272-7.45629-21.35261-5.12186-9.895,3.574-12.53708,15.13386-14.622,24.7545a53.10157,53.10157,0,0,1-19.57869-23.99354,58.50064,58.50064,0,0,1-4.38514-20.2665,137.66143,137.66143,0,0,1,.65983-14.76792c.63065.27011,1.25335.53364,1.85657.78363,33.17034,14.9144,68.1893,23.322,97.38306,37.799A88.516,88.516,0,0,1,533.99161,419.18011Zm-68.56585-56.95979c6.02125-8.24467,2.09181,1.20807,10.11035,7.49175,4.75427,4.08658,19.48812-8.42735,20.33878-3.08751a56.31041,56.31041,0,0,1,.34582,6.985c-1.21559-.43561-2.43191-.86848-3.64411-1.31324C483.53888,368.906,474.4804,365.56808,465.42576,362.22032Zm89.02766,33.41339c-5.81578-2.75158-10.73555-4.91667-17.88607-7.69092-12.77135-5.00554-25.84518-9.17643-38.76859-13.76465,3.05451-8.29972,2.54392-18.57726-1.02146-24.56394-3.517-6.82152-12.71914-10.05534-19.38238-5.81075-6.6604,3.83823-9.958,11.25593-12.27474,18.3033-5.573-2.06085-11.14786-4.11749-16.70569-6.21582,2.29594-15.08192,7.88522-36.803,22.13587-49.19829,6.34951-5.409,14.24745-8.955,22.305-11.89784-.61008.658-1.21276,1.32056-1.80153,1.99063-.478.54881-.94127,1.11135-1.41566,1.66236,1.88666-1.6256,3.67456-3.07893,5.53141-4.47959,2.2023-.77376,4.40644-1.52118,6.58515-2.24684q-2.197.31876-4.41659.66458c.58457-.41221,1.1653-.82386,1.78242-1.23515,10.89594-6.782,19.76541-10.61751,32.09685-9.89,5.24694.019,9.75021,1.301,16.35292,3.92017.79433.35807,2.16152.97693,2.64889,1.22766a26.60019,26.60019,0,0,1,3.84317,2.3593c8.82631,8.22181,12.7858,19.5979,15.76652,35.30855a85.36347,85.36347,0,0,1,1.23772,19.40313,68.79619,68.79619,0,0,1-.77385,7.5384q.097-.72145.19394-1.44327c-.25246,1.466-.53007,2.956-.82533,4.45563-.33622-.22128-.67591-.43781-1.01177-.65946.31309.32772.63724.64483.95179.97126-2.27875,11.47466-5.72754,23.5199-9.263,30.55648A102.91261,102.91261,0,0,1,554.45342,395.63371Zm46.7758,9.9041c-2.21236,4.37407-8.54669,5.8733-10.41451,5.23761-11.78034-3.0076-14.14641-4.71513-24.07456-9.21191-.932-.45189-1.81744-.88147-2.67953-1.29989A111.46262,111.46262,0,0,0,576.947,370.21171q.9453-3.40372,1.77172-6.85261c.12975.12125.254.24853.38414.36959C595.04448,378.115,607.44011,396.48537,601.22922,405.53781Z" transform="translate(-314.70502 -207.88748)"/><path d="M546.45106,313.90844c-1.98358-4.16321-5.81834-8.03454-10.53649-8.69985a13.57968,13.57968,0,0,0-5.89515.85916,12.62049,12.62049,0,0,1,6.20559,1.18706c6.97422,4.74256,6.9274,13.70027,4.32231,18.83987-4.24468,8.56452-11.95361,9.67751-18.07544,8.8787-1.01214.1368-5.20845-3.32325-5.91042-7.11448-1.377-6.24473,7.47-12.62588,12.456-17.55845-6.92,3.51216-16.22481,6.85882-18.21095,15.23883-1.21486,6.27215,2.229,13.06752,7.60332,16.35127a21.748,21.748,0,0,0,20.38409-1.69894C547.21577,334.80349,550.87113,322.97149,546.45106,313.90844Z" transform="translate(-314.70502 -207.88748)"/><path d="M712.29958,279.98208c-7.89885.19568-7.87828,11.76781.00018,11.98507C720.19879,291.77129,720.17822,280.19916,712.29958,279.98208Z" transform="translate(-314.70502 -207.88748)"/><path d="M660.65722,339.37086c-7.89885.19568-7.87827,11.76781.00019,11.98507C668.55644,351.16006,668.53587,339.58793,660.65722,339.37086Z" transform="translate(-314.70502 -207.88748)"/><path d="M787.181,357.44557c-7.89885.19586-7.87827,11.768.00018,11.98507C795.08023,369.23477,795.05965,357.66264,787.181,357.44557Z" transform="translate(-314.70502 -207.88748)"/><path d="M428.2664,615.65761c-7.89885.19568-7.87818,11.76781.00019,11.98507C436.16571,627.44682,436.14505,615.87469,428.2664,615.65761Z" transform="translate(-314.70502 -207.88748)"/><path d="M526.387,504.62639c-7.89885.19568-7.87827,11.76781.00019,11.98507C534.28623,516.41578,534.26565,504.84365,526.387,504.62639Z" transform="translate(-314.70502 -207.88748)"/><path d="M707.1353,533.02966c-7.89885.19586-7.87819,11.768.00027,11.98507C715.0346,544.81887,715.01394,533.24692,707.1353,533.02966Z" transform="translate(-314.70502 -207.88748)"/><path d="M410.1916,491.71578c-7.89885.19586-7.87827,11.768.00019,11.98507C418.09082,503.505,418.07024,491.93285,410.1916,491.71578Z" transform="translate(-314.70502 -207.88748)"/><path d="M699.389,416.83434c-7.89885.19587-7.87828,11.76781.00018,11.98507C707.28818,428.62355,707.26761,417.05142,699.389,416.83434Z" transform="translate(-314.70502 -207.88748)"/><path d="M590.94,589.83639c-7.89885.19568-7.87828,11.76781.00018,11.98506C598.83919,601.62559,598.81862,590.05365,590.94,589.83639Z" transform="translate(-314.70502 -207.88748)"/><path d="M653.99874,473.13889c-6.22918-7.9197-16.87906-14.80541-27.249-11.69667-4.95223,1.42333-8.24842,5.63647-10.7233,9.92056-.68835,1.171-1.33163,2.36753-1.94591,3.57818.44595-.48407.89619-.96413,1.34287-1.44729,7.28987-8.10093,14.2629-9.97232,21.69166-4.50025,5.01277,4.0105,9.30975,8.56928,10.4788,15.91a28.21082,28.21082,0,0,1-1.10943,12.63118c-.10159.31546-.20345.60569-.2969.86446-2.0902,3.92017-1.323,2.82144-4.97345,6.0655-4.74787,3.11112-4.43039,2.60217-8.82714,4.37645-3.34629,1.14408-3.55276.96267-4.36209.98845-.31582-.00274-.63065-.02377-.94474-.05395-.42867-.0673-1.70918-.26334-2.37192-.43525-2.95832-.53875-7.00915-4.3748-9.31963-11.10451-.58841-2.94927.13231-7.58741,1.29249-11.433,1.74456-4.82541,4.38961-9.26622,6.628-13.8698-6.71581,7.31-14.07655,15.40872-14.37052,25.89437a26.62309,26.62309,0,0,0,8.40167,17.62831,22.03787,22.03787,0,0,0,10.9423,4.28921c11.0918.10972,23.74053-5.565,28.97422-15.73863C661.67631,494.8845,660.57941,482.09386,653.99874,473.13889Z" transform="translate(-314.70502 -207.88748)"/><path d="M812.95277,275.8816a15.14089,15.14089,0,0,0-12.39-2.2397c-3.5514,1.14481-5.96255,4.04726-7.94009,7.12729-4.64985,4.9269-8.66447,11.27514-4.20555,17.437,6.02719,6.77434,17.76748,5.879,23.97343-.22823C818.54718,292.45,820.76009,280.96231,812.95277,275.8816Zm-3.94769,12.29413c-1.31315,3.08826-7.19825,9.49318-14.73573,7.03311-1.82823-.49487-2.56376-1.17883-3.22807-3.29655-.5778-3.90481,1.42526-7.63551,3.411-11.202,4.187-3.08185,8.44209-4.313,12.96328-.69786C810.3987,283.11039,810.60791,283.01511,809.00508,288.17573Z" transform="translate(-314.70502 -207.88748)"/><path d="M516.41735,578.69128a17.74,17.74,0,0,0-5.98742-.01427,18.90083,18.90083,0,0,1,3.86567,1.31654,9.745,9.745,0,0,1,6.15365,9.14681c-.51315,7.33412-5.56277,10.888-10.21426,12.16867-2.47681.63843-7.8994.95645-10.37.17776-.67783-.39794-2.80616-1.60347-3.033-2.21136.62023.87068-.33988-.50035-.48207-.88074-.20189-.61227-1.07925-3.44523-.82724-4.71824.60413-4.78956,6.78933-10.303,10.95318-14.43819-6.163,2.94744-13.29877,5.81917-16.26441,12.47153a15.00639,15.00639,0,0,0-.192,10.146,14.08127,14.08127,0,0,0,6.70228,7.24853c4.86537,2.11736,10.63964,1.98057,15.71486.696,5.94306-1.93467,11.07287-6.336,13.05207-12.36564C528.48114,590.02621,524.84234,580.11681,516.41735,578.69128Z" transform="translate(-314.70502 -207.88748)"/><path d="M399.86313,285.14618c-7.89885.19568-7.87827,11.76781.00018,11.98507C407.76235,296.93557,407.74177,285.36344,399.86313,285.14618Z" transform="translate(-314.70502 -207.88748)"/></svg>