<svg xmlns="http://www.w3.org/2000/svg" data-name="Layer 1" width="305.43724" height="513.18868" viewBox="0 0 305.43724 513.18868" xmlns:xlink="http://www.w3.org/1999/xlink"><path d="M606.78969,345.56568c-20.73811,3.5992-38.67562,20.06263-44.03563,40.41683s2.14247,43.51692,18.4182,56.86323c12.76635,10.46857,32.63645,14.28156,45.6392,4.10811C639.10279,437.337,640.944,419.5952,640.25558,404.004c-.52524-11.89555-2.05391-24.129-7.95459-34.47119s-17.07837-18.42167-28.9532-17.54505" transform="translate(-447.28138 -193.40566)" fill="#dcdcdc"/><path d="M452.14765,223.32742c359.99657-44.278,290.80347-59.09765,278.77333,278.81271-12.29181,234.44715,78.54434,189.328-179.56558,187.615-29.77947-3.89349-64.96308,1.28329-92.004-9.19915-4.86783-148.78229-7.58585-296.43153-12.07-445.64067,2.4227,139.20336-3.3723,303.00366,4.50116,451.70275,28.24593,17.21594,68.6913,8.31507,101.31939,14.09254,283.35412,13.55741,172.57523,24.2542,189.88424-216.751C761.82538,138.476,787.97072,176.7156,452.14765,223.32742Z" transform="translate(-447.28138 -193.40566)"/><path d="M537.17988,375.64774c136.93157-80.92539,55.12687,237.3461-23.36311,81.62955-10.58983-30.18774,1.69108-64.68449,28.08192-83.16419-41.49621,22.20937-51.048,84.50585-17.55357,118.49511,51.67816,57.78828,107.75182-32.7809,98.51169-84.266C620.94832,366.66663,562.97911,335.58735,537.17988,375.64774Z" transform="translate(-447.28138 -193.40566)"/><path d="M601.07538,457.43094c11.3086,17.20947,23.61817,33.68164,38.41114,47.7085,14.82324,13.1372,30.91113,22.86718,47.11914,33.32177C663.343,509.40848,627.5832,474.47488,601.07538,457.43094Z" transform="translate(-447.28138 -193.40566)"/><path d="M688.56953,246.8992c-56.92206,1.31306-113.21259,9.60708-168.51532,20.55959C572.48047,271.35035,642.12184,263.8353,688.56953,246.8992Z" transform="translate(-447.28138 -193.40566)"/><path d="M694.34687,319.63211c-69.42964,1.387-138.11645,5.73089-207.205,9.04007C553.35018,339.77509,630.14043,337.90806,694.34687,319.63211Z" transform="translate(-447.28138 -193.40566)"/><path d="M689.89277,581.13406c-57.724-3.52984-116.07819,5.46-170.73989,22.07621C573.37324,601.33377,645.93085,592.72586,689.89277,581.13406Z" transform="translate(-447.28138 -193.40566)"/><path d="M689.89277,639.52322c-57.724-3.52984-116.07819,5.46-170.73989,22.07621C573.37324,659.72293,645.93085,651.115,689.89277,639.52322Z" transform="translate(-447.28138 -193.40566)"/></svg>